<svg width="680" height="220" viewBox="0 0 680 220" role="img" xmlns="http://www.w3.org/2000/svg">
<title>Marlingo logo (dark background version)</title>
<desc>A compass star with a speech bubble at its center, beside the wordmark Marlingo in light colors and the subtitle Maritime English, designed for dark backgrounds.</desc>

<g transform="translate(110, 110)">
<circle cx="0" cy="0" r="92" fill="none" stroke="#C9A227" stroke-width="4"/>
<circle cx="0" cy="0" r="80" fill="none" stroke="#3a9bb0" stroke-width="2"/>

<polygon points="0,-104 14,-18 0,-2 -14,-18" fill="#3a9bb0"/>
<polygon points="0,104 14,18 0,2 -14,18" fill="#2E7C8C"/>
<polygon points="104,0 18,14 2,0 18,-14" fill="#2E7C8C"/>
<polygon points="-104,0 -18,14 -2,0 -18,-14" fill="#2E7C8C"/>

<polygon points="64,-64 22,-14 12,-12 14,-22" fill="#3a9bb0"/>
<polygon points="-64,-64 -14,-22 -12,-12 -22,-14" fill="#3a9bb0"/>
<polygon points="64,64 14,22 12,12 22,14" fill="#2E7C8C"/>
<polygon points="-64,64 -22,14 -12,12 -14,22" fill="#2E7C8C"/>

<path d="M -44,-30 Q -44,-50 -22,-50 L 22,-50 Q 44,-50 44,-30 L 44,8 Q 44,28 22,28 L -2,28 L -14,44 L -14,28 L -22,28 Q -44,28 -44,8 Z" fill="#C9A227"/>
<rect x="-26" y="-30" width="52" height="7" rx="3.5" fill="#13384a"/>
<rect x="-26" y="-13" width="52" height="7" rx="3.5" fill="#13384a"/>
<rect x="-26" y="4" width="34" height="7" rx="3.5" fill="#13384a"/>
</g>

<text x="238" y="118" font-family="Verdana, Geneva, sans-serif" font-size="64" font-weight="700" fill="#F2F6F8">Mar<tspan fill="#3a9bb0">lingo</tspan></text>
<text x="241" y="152" font-family="Verdana, Geneva, sans-serif" font-size="20" font-weight="400" letter-spacing="3" fill="#8fa6b3">MARITIME ENGLISH</text>
</svg>
